# xmcd
#
# Track frame offsets: 
#        150
#        17340
#        30408
#        47817
#        60680
#        75682
#        92593
#        104671
#        121236
#        134323
#        144465
#
# Disc length: 2136 seconds
#
# Revision: 0
# Processed by: cddbd v1.5.2PL0 Copyright (c) Steve Scherf et al.
# Submitted via: ExactAudioCopyFreeDBPlugin 1.0
#
DISCID=8908560b
DTITLE=Sean Wheeler - Sand In My Blood
DYEAR=2017
DGENRE=
TTITLE0=Death Don't Have No Mercy
TTITLE1=I'm Glad
TTITLE2=Hey Cowboy
TTITLE3=Home Is Where The Hatred Is
TTITLE4=Wayfaring Man Of Grief
TTITLE5=Last Kind Words Blues
TTITLE6=What Are They Doing In Heaven Today
TTITLE7=Nobody's Fault But Mine
TTITLE8=Now That You Know (Funky Wicked World)
TTITLE9=Men Like Me Can Fly
TTITLE10=I'm Coming Home
EXTD=
EXTT0=
EXTT1=
EXTT2=
EXTT3=
EXTT4=
EXTT5=
EXTT6=
EXTT7=
EXTT8=
EXTT9=
EXTT10=
PLAYORDER=
